<?xml version="1.0" standalone="no"?><!DOCTYPE svg PUBLIC "-//W3C//DTD SVG 1.1//EN" "http://www.w3.org/Graphics/SVG/1.1/DTD/svg11.dtd"><svg t="1719068369036" class="icon" viewBox="0 0 1024 1024" version="1.1" xmlns="http://www.w3.org/2000/svg" p-id="4301" xmlns:xlink="http://www.w3.org/1999/xlink" width="256" height="256"><path d="M513.11965 1024a37.108404 37.108404 0 0 1-8.957201-1.08766c-4.54258-1.15164-112.668791-28.854983-221.882661-104.28741C134.805873 816.70478 56.942206 676.588566 56.942206 513.43955V153.743955a35.828803 35.828803 0 0 1 36.148703-35.572883c196.994439 0 400.258919-112.092971 402.242299-113.244612a36.596564 36.596564 0 0 1 36.020744 0.19194c1.9194 1.15164 200.6413 113.052671 399.363199 113.052672a35.828803 35.828803 0 0 1 36.148703 35.572883v359.695595c0 162.189316-77.415808 301.985629-223.994001 404.22568-108.510091 75.752327-215.996501 104.03149-220.539082 105.18313a36.468604 36.468604 0 0 1-9.149141 1.15164z" fill="#5682F7" fill-opacity=".3" p-id="4302"></path><path d="M512.73577 895.720087a24.376382 24.376382 0 0 1-6.270041-0.83174 515.80681 515.80681 0 0 1-156.047235-78.247547C246.770884 740.248672 191.940019 635.129522 191.940019 512.73577V243.060044c0-14.715401 11.388441-26.679663 25.400062-26.679663 138.516714 0 281.448047-84.069728 282.855608-84.901468a24.312402 24.312402 0 0 1 25.272102 0.12796c1.40756 0.89572 141.139894 84.773508 280.872228 84.773508 14.075601 0 25.400062 11.964261 25.400062 26.679663v269.803686c0 121.562012-54.446985 226.489222-157.518775 303.13727a516.63855 516.63855 0 0 1-155.023555 78.887347 23.992502 23.992502 0 0 1-6.398001 0.89572z" fill="#5682F7" p-id="4303"></path><path d="M485.608247 665.839925a41.714964 41.714964 0 0 1-29.430802-12.092221L319.644111 531.993752A40.947204 40.947204 0 0 1 319.900031 473.899906a41.970884 41.970884 0 0 1 58.669666-0.19194L485.608247 566.351015l191.428179-215.356701a41.970884 41.970884 0 0 1 58.733646 0.19194 40.947204 40.947204 0 0 1 0.19194 58.093846L515.03905 653.747704a41.714964 41.714964 0 0 1-29.430803 12.156201z" fill="#CDDAFD" p-id="4304"></path></svg>